# xmcd
#
# Track frame offsets:
#	150
#	21235
#	34460
#	50678
#	70666
#	84034
#	100066
#	126100
#	147762
#	171948
#	184734
#	197077
#
# Disc length: 2959 seconds
#
# Revision: 0
# Processed by: cddbd v1.5.1PL0 Copyright (c) Steve Scherf et al.
# Submitted via: dBpowerAMP V4.0
#
DISCID=a10b8d0c
DTITLE=Varios - Canción Social Vol 2. (Disco 1)
DYEAR=1900
DGENRE=Latin
TTITLE0=Pablo Milanés - Yolanda
TTITLE1=Mercedes Sosa - María, María
TTITLE2=Piero - Y Todos Los Días
TTITLE3=Luis Gabriel - Así es Mi Pueblo
TTITLE4=León Gieco - Todos Los Caballos Blancos
TTITLE5=Patxi Andion - Una Dos y Tres
TTITLE6=Víctor Heredia - Sobreviviendo
TTITLE7=Alberto Cortéz - Cuando un Amigo Se Va
TTITLE8=Facundo Cabral - Volando Bajo
TTITLE9=Mercedes Sosa - Canción de Las Pequeñas Cosas
TTITLE10=Quilapayun - Duerme Negrito
TTITLE11=Caetano Veloso - Lamento Borincano
EXTD=
EXTT0=
EXTT1=
EXTT2=
EXTT3=
EXTT4=
EXTT5=
EXTT6=
EXTT7=
EXTT8=
EXTT9=
EXTT10=
EXTT11=
PLAYORDER=
